<?xml version="1.0" encoding="UTF-8" standalone="no"?>
<!DOCTYPE svg PUBLIC "-//W3C//DTD SVG 1.1//EN" "http://www.w3.org/Graphics/SVG/1.1/DTD/svg11.dtd">
<svg width="100%" height="100%" viewBox="0 0 501 88" version="1.1" xmlns="http://www.w3.org/2000/svg" xmlns:xlink="http://www.w3.org/1999/xlink" xml:space="preserve" xmlns:serif="http://www.serif.com/" style="fill-rule:evenodd;clip-rule:evenodd;stroke-linejoin:round;stroke-miterlimit:2;">
    <g transform="matrix(1,0,0,1,-7480,-856)">
        <g transform="matrix(1.0037,0,0,1.0037,1457.58,292.075)">
            <g transform="matrix(4.65443,0,0,4.65443,-3548.08,-2451.98)">
                <path d="M2051.59,659.562C2051.59,660.476 2052.08,660.958 2052.99,660.958L2054.59,660.958C2055.5,660.958 2055.98,660.476 2055.98,659.562L2055.98,655.423C2055.98,653.62 2056.49,651.564 2058.5,651.564C2059.34,651.564 2059.51,652.249 2059.51,653.214L2059.51,659.562C2059.51,660.476 2060,660.958 2060.91,660.958L2062.51,660.958C2063.42,660.958 2063.91,660.476 2063.91,659.562L2063.91,655.423C2063.91,653.468 2064.51,651.564 2066.42,651.564C2067.26,651.564 2067.44,652.249 2067.44,653.214L2067.44,659.562C2067.44,660.476 2067.92,660.958 2068.83,660.958L2070.43,660.958C2071.34,660.958 2071.83,660.476 2071.83,659.562L2071.83,652.478C2071.83,648.875 2069.97,647.581 2067.59,647.581C2065.63,647.581 2064.08,648.697 2063.4,649.788L2063.35,649.788C2062.66,648.316 2061.34,647.581 2059.69,647.581C2057.64,647.581 2056.41,648.925 2055.8,649.839L2055.76,649.839C2055.76,649.839 2055.78,649.636 2055.78,649.509L2055.78,649.28C2055.78,648.367 2055.32,647.885 2054.41,647.885L2052.99,647.885C2052.08,647.885 2051.59,648.367 2051.59,649.281L2051.59,659.562Z" style="fill:rgb(255,171,1);fill-rule:nonzero;"/>
            </g>
            <g transform="matrix(1,0,0,1,0,-1.36309)">
                <g transform="matrix(4.65443,2.20623e-16,-2.20623e-16,4.65443,-3548.08,-2450.62)">
                    <path d="M2073,654.46C2073,658.548 2076.3,661.263 2080.41,661.263C2084.52,661.263 2087.82,658.548 2087.82,654.46C2087.82,650.346 2084.52,647.581 2080.38,647.581C2076.3,647.581 2073,650.346 2073,654.46Z" style="fill:rgb(255,171,1);"/>
                </g>
                <g transform="matrix(1.11553e-17,-0.0510935,0.0650136,8.05239e-18,6113.94,935.132)">
                    <path d="M6731.75,111.93C6725.46,111.964 6719.17,112.179 6712.9,112.568C6658.47,115.952 6606.44,131.81 6558.52,157.611C6531.2,172.333 6504.24,187.971 6475.75,200.299C6461.61,206.411 6447.1,211.674 6432.17,215.434C6416.63,219.367 6400.7,221.753 6385.28,226.172C6361.74,232.897 6339.2,246.569 6333.11,270.565C6326.32,297.353 6337.71,324.856 6352.26,346.998C6368.88,372.291 6390.41,394.532 6412.52,415.075C6436.3,437.207 6462.06,457.541 6489.62,474.802L6490.94,475.622C6505.1,484.308 6519.64,492.361 6534.67,499.536C6587.4,524.802 6646.73,540.355 6704.43,537.027C6752.28,534.24 6799.89,521.123 6842.19,498.963C6864.07,487.483 6884.95,473.288 6903.24,456.669C6918.32,442.947 6934.54,423.658 6944.41,406.682C6968.49,365.281 6975.95,316.855 6963.72,269.466C6950.16,216.983 6915.51,171.571 6868.22,145.025C6827.02,121.905 6779.98,111.853 6733.01,111.926L6731.75,111.93Z" style="fill:white;"/>
                </g>
            </g>
            <g transform="matrix(4.65443,0,0,4.65443,-3548.08,-2451.98)">
                <path d="M2089.17,659.562C2089.17,660.476 2089.65,660.958 2090.57,660.958L2092.16,660.958C2093.08,660.958 2093.56,660.476 2093.56,659.562L2093.56,655.042C2093.56,653.189 2094.45,651.564 2096.41,651.564C2097.37,651.564 2097.85,652.072 2097.85,653.29L2097.85,659.562C2097.85,660.476 2098.34,660.958 2099.25,660.958L2100.85,660.958C2101.76,660.958 2102.24,660.476 2102.24,659.562L2102.24,652.478C2102.24,648.798 2100.19,647.581 2097.55,647.581C2095.24,647.581 2093.99,648.824 2093.38,649.839L2093.33,649.839C2093.33,649.839 2093.36,649.636 2093.36,649.509L2093.36,649.28C2093.36,648.367 2092.9,647.885 2091.99,647.885L2090.57,647.885C2089.65,647.885 2089.17,648.367 2089.17,649.281L2089.17,659.562Z" style="fill:rgb(255,171,1);fill-rule:nonzero;"/>
            </g>
            <g transform="matrix(4.65443,0,0,4.65443,-3548.08,-2451.98)">
                <path d="M2105.49,663.094L2105.22,663.855C2104.89,664.743 2105.12,665.301 2105.98,665.656C2106.76,665.986 2108.34,666.29 2109.86,666.29C2113.19,666.29 2117.07,664.54 2117.07,659.765L2117.07,649.282C2117.07,648.368 2116.59,647.885 2115.68,647.885L2114.48,647.885C2113.57,647.885 2113.09,648.368 2113.09,648.977L2113.09,649.028C2113.09,649.18 2113.11,649.282 2113.11,649.282L2113.06,649.282C2113.06,649.28 2112.28,647.581 2109.48,647.581C2105.39,647.581 2103.49,650.676 2103.49,654.003C2103.49,657.356 2105.45,660.577 2109.45,660.577C2111.01,660.577 2111.95,660.019 2112.66,658.979L2112.71,658.979C2112.71,658.979 2112.68,659.309 2112.68,659.461L2112.68,660.121C2112.68,662.052 2111.26,662.637 2109.61,662.637C2108.59,662.637 2107.91,662.484 2107.27,662.281C2106.33,661.976 2105.82,662.23 2105.49,663.094ZM2110.42,656.924C2108.67,656.924 2107.91,655.476 2107.91,653.85C2107.91,652.351 2108.69,651.234 2110.24,651.234C2111.56,651.234 2112.78,651.742 2112.78,654.054C2112.78,656.34 2111.56,656.924 2110.42,656.924Z" style="fill:rgb(255,171,1);fill-rule:nonzero;"/>
            </g>
            <g transform="matrix(1,0,0,1,0,-11.3631)">
                <path d="M6312.08,605.522C6312.08,624.552 6327.43,637.186 6346.58,637.186C6365.73,637.186 6381.08,624.552 6381.08,605.522C6381.08,586.374 6365.73,573.504 6346.46,573.504C6327.43,573.504 6312.08,586.374 6312.08,605.522ZM6332.75,605.522C6332.75,596.3 6339.13,590.507 6346.58,590.507C6354.03,590.507 6360.41,596.3 6360.41,605.522C6360.41,614.627 6354.03,620.184 6346.58,620.184C6339.13,620.184 6332.75,614.627 6332.75,605.522Z" style="fill:rgb(255,171,1);"/>
            </g>
            <g transform="matrix(1,0,0,1,0,-1.36309)">
                <path d="M6430.08,595.522C6430.08,614.552 6445.43,627.186 6464.58,627.186C6483.73,627.186 6499.08,614.552 6499.08,595.522C6499.08,576.374 6483.73,563.504 6464.46,563.504C6445.43,563.504 6430.08,576.374 6430.08,595.522ZM6450.74,595.522C6450.74,586.3 6457.13,580.507 6464.58,580.507C6472.03,580.507 6478.41,586.3 6478.41,595.522C6478.41,604.627 6472.03,610.184 6464.58,610.184C6457.13,610.184 6450.74,604.627 6450.74,595.522Z" style="fill:rgb(255,171,1);"/>
            </g>
            <g transform="matrix(4.65443,0,0,4.65443,-3548.08,-2452.81)">
                <path d="M2134.62,659.562C2134.62,660.476 2135.1,660.958 2136.01,660.958L2137.61,660.958C2138.53,660.958 2139.01,660.476 2139.01,659.562L2139.01,655.88C2139.01,653.747 2140.02,651.97 2142.11,651.97C2143.02,651.97 2143.5,651.488 2143.5,650.575L2143.5,649.154C2143.5,648.24 2143.2,647.758 2142.31,647.758C2140.66,647.758 2139.26,649.56 2138.83,650.904L2138.78,650.904C2138.78,650.904 2138.83,650.524 2138.83,650.093L2138.83,649.281C2138.83,648.368 2138.35,647.885 2137.43,647.885L2136.01,647.885C2135.1,647.885 2134.62,648.368 2134.62,649.282L2134.62,659.562Z" style="fill:rgb(255,171,1);fill-rule:nonzero;"/>
            </g>
        </g>
    </g>
</svg>
