<?xml version="1.0" encoding="UTF-8" standalone="no"?>
<!DOCTYPE svg PUBLIC "-//W3C//DTD SVG 1.1//EN" "http://www.w3.org/Graphics/SVG/1.1/DTD/svg11.dtd">
<svg width="100%" height="100%" viewBox="0 0 500 88" version="1.1" xmlns="http://www.w3.org/2000/svg" xmlns:xlink="http://www.w3.org/1999/xlink" xml:space="preserve" xmlns:serif="http://www.serif.com/" style="fill-rule:evenodd;clip-rule:evenodd;stroke-linejoin:round;stroke-miterlimit:2;">
    <g transform="matrix(1,0,0,1,-7814,-256)">
        <g transform="matrix(0.22856,0,0,0.22856,6939.77,151.121)">
            <g transform="matrix(20.4396,0,0,20.4396,-38108.8,-12776.1)">
                <path d="M2051.59,659.562C2051.59,660.476 2052.08,660.958 2052.99,660.958L2054.59,660.958C2055.5,660.958 2055.98,660.476 2055.98,659.562L2055.98,655.423C2055.98,653.62 2056.49,651.564 2058.5,651.564C2059.34,651.564 2059.51,652.249 2059.51,653.214L2059.51,659.562C2059.51,660.476 2060,660.958 2060.91,660.958L2062.51,660.958C2063.42,660.958 2063.91,660.476 2063.91,659.562L2063.91,655.423C2063.91,653.468 2064.51,651.564 2066.42,651.564C2067.26,651.564 2067.44,652.249 2067.44,653.214L2067.44,659.562C2067.44,660.476 2067.92,660.958 2068.83,660.958L2070.43,660.958C2071.34,660.958 2071.83,660.476 2071.83,659.562L2071.83,652.478C2071.83,648.875 2069.97,647.581 2067.59,647.581C2065.63,647.581 2064.08,648.697 2063.4,649.788L2063.35,649.788C2062.66,648.316 2061.34,647.581 2059.69,647.581C2057.64,647.581 2056.41,648.925 2055.8,649.839L2055.76,649.839C2055.76,649.839 2055.78,649.636 2055.78,649.509L2055.78,649.28C2055.78,648.367 2055.32,647.885 2054.41,647.885L2052.99,647.885C2052.08,647.885 2051.59,648.367 2051.59,649.281L2051.59,659.562Z" style="fill:white;fill-rule:nonzero;"/>
            </g>
            <g transform="matrix(1,0,0,1,102.539,51.3772)">
                <path d="M4159.89,549.401C4159.89,632.97 4227.31,688.45 4311.4,688.45C4395.48,688.45 4462.9,632.97 4462.9,549.401C4462.9,465.313 4395.48,408.795 4310.88,408.795C4227.31,408.795 4159.89,465.313 4159.89,549.401Z" style="fill:white;"/>
            </g>
            <g transform="matrix(1,0,0,1,102.539,51.3772)">
                <path d="M4250.65,530.348C4250.66,531.759 4250.72,533.17 4250.83,534.577C4251.8,546.79 4256.33,558.465 4263.69,569.216C4267.9,575.346 4272.36,581.395 4275.88,587.789C4277.62,590.959 4279.13,594.217 4280.2,597.566C4281.32,601.053 4282.01,604.628 4283.27,608.087C4285.19,613.367 4289.09,618.425 4295.94,619.793C4303.59,621.317 4311.44,618.761 4317.76,615.496C4324.98,611.767 4331.33,606.935 4337.2,601.976C4343.52,596.639 4349.32,590.86 4354.25,584.675L4354.48,584.38C4356.97,581.201 4359.26,577.939 4361.31,574.569C4368.53,562.735 4372.97,549.425 4372.02,536.478C4371.22,525.741 4367.48,515.059 4361.15,505.568C4357.87,500.658 4353.82,495.974 4349.07,491.87C4345.16,488.486 4339.65,484.847 4334.8,482.632C4322.98,477.23 4309.16,475.557 4295.63,478.3C4280.64,481.343 4267.68,489.118 4260.1,499.729C4253.5,508.973 4250.63,519.528 4250.65,530.066L4250.65,530.348Z" style="fill:rgb(255,171,1);"/>
                <clipPath id="_clip1">
                    <path d="M4250.65,530.348C4250.66,531.759 4250.72,533.17 4250.83,534.577C4251.8,546.79 4256.33,558.465 4263.69,569.216C4267.9,575.346 4272.36,581.395 4275.88,587.789C4277.62,590.959 4279.13,594.217 4280.2,597.566C4281.32,601.053 4282.01,604.628 4283.27,608.087C4285.19,613.367 4289.09,618.425 4295.94,619.793C4303.59,621.317 4311.44,618.761 4317.76,615.496C4324.98,611.767 4331.33,606.935 4337.2,601.976C4343.52,596.639 4349.32,590.86 4354.25,584.675L4354.48,584.38C4356.97,581.201 4359.26,577.939 4361.31,574.569C4368.53,562.735 4372.97,549.425 4372.02,536.478C4371.22,525.741 4367.48,515.059 4361.15,505.568C4357.87,500.658 4353.82,495.974 4349.07,491.87C4345.16,488.486 4339.65,484.847 4334.8,482.632C4322.98,477.23 4309.16,475.557 4295.63,478.3C4280.64,481.343 4267.68,489.118 4260.1,499.729C4253.5,508.973 4250.63,519.528 4250.65,530.066L4250.65,530.348Z"/>
                </clipPath>
                <g clip-path="url(#_clip1)">
                    <g transform="matrix(19.8219,0,0,19.0243,-38323.8,-11936.5)">
                        <path d="M2147.95,654.46C2147.95,652.478 2149.32,651.234 2150.92,651.234C2152.52,651.234 2153.89,652.478 2153.89,654.46C2153.89,656.416 2152.52,657.61 2150.92,657.61C2149.32,657.61 2147.95,656.416 2147.95,654.46Z" style="fill:url(#_Radial2);"/>
                    </g>
                </g>
            </g>
            <g transform="matrix(20.4396,0,0,20.4396,-38108.8,-12776.1)">
                <path d="M2089.17,659.562C2089.17,660.476 2089.65,660.958 2090.57,660.958L2092.16,660.958C2093.08,660.958 2093.56,660.476 2093.56,659.562L2093.56,655.042C2093.56,653.189 2094.45,651.564 2096.41,651.564C2097.37,651.564 2097.85,652.072 2097.85,653.29L2097.85,659.562C2097.85,660.476 2098.34,660.958 2099.25,660.958L2100.85,660.958C2101.76,660.958 2102.24,660.476 2102.24,659.562L2102.24,652.478C2102.24,648.798 2100.19,647.581 2097.55,647.581C2095.24,647.581 2093.99,648.824 2093.38,649.839L2093.33,649.839C2093.33,649.839 2093.36,649.636 2093.36,649.509L2093.36,649.28C2093.36,648.367 2092.9,647.885 2091.99,647.885L2090.57,647.885C2089.65,647.885 2089.17,648.367 2089.17,649.281L2089.17,659.562Z" style="fill:white;fill-rule:nonzero;"/>
            </g>
            <g transform="matrix(20.4396,0,0,20.4396,-38108.8,-12776.1)">
                <path d="M2105.49,663.094L2105.22,663.855C2104.89,664.743 2105.12,665.301 2105.98,665.656C2106.76,665.986 2108.34,666.29 2109.86,666.29C2113.19,666.29 2117.07,664.54 2117.07,659.765L2117.07,649.282C2117.07,648.368 2116.59,647.885 2115.68,647.885L2114.48,647.885C2113.57,647.885 2113.09,648.368 2113.09,648.977L2113.09,649.028C2113.09,649.18 2113.11,649.282 2113.11,649.282L2113.06,649.282C2113.06,649.28 2112.28,647.581 2109.48,647.581C2105.39,647.581 2103.49,650.676 2103.49,654.003C2103.49,657.356 2105.45,660.577 2109.45,660.577C2111.01,660.577 2111.95,660.019 2112.66,658.979L2112.71,658.979C2112.71,658.979 2112.68,659.309 2112.68,659.461L2112.68,660.121C2112.68,662.052 2111.26,662.637 2109.61,662.637C2108.59,662.637 2107.91,662.484 2107.27,662.281C2106.33,661.976 2105.82,662.23 2105.49,663.094ZM2110.42,656.924C2108.67,656.924 2107.91,655.476 2107.91,653.85C2107.91,652.351 2108.69,651.234 2110.24,651.234C2111.56,651.234 2112.78,651.742 2112.78,654.054C2112.78,656.34 2111.56,656.924 2110.42,656.924Z" style="fill:white;fill-rule:nonzero;"/>
            </g>
            <g transform="matrix(4.39142,0,0,4.39142,-22527.6,-2058.33)">
                <path d="M6312.08,605.522C6312.08,624.552 6327.43,637.186 6346.58,637.186C6365.73,637.186 6381.08,624.552 6381.08,605.522C6381.08,586.374 6365.73,573.504 6346.46,573.504C6327.43,573.504 6312.08,586.374 6312.08,605.522ZM6332.75,605.522C6332.75,596.3 6339.13,590.507 6346.58,590.507C6354.03,590.507 6360.41,596.3 6360.41,605.522C6360.41,614.627 6354.03,620.184 6346.58,620.184C6339.13,620.184 6332.75,614.627 6332.75,605.522Z" style="fill:white;"/>
            </g>
            <g transform="matrix(4.39142,0,0,4.39142,-22527.6,-2014.41)">
                <path d="M6430.08,595.522C6430.08,614.552 6445.43,627.186 6464.58,627.186C6483.73,627.186 6499.08,614.552 6499.08,595.522C6499.08,576.374 6483.73,563.504 6464.46,563.504C6445.43,563.504 6430.08,576.374 6430.08,595.522ZM6450.74,595.522C6450.74,586.3 6457.13,580.507 6464.58,580.507C6472.03,580.507 6478.41,586.3 6478.41,595.522C6478.41,604.627 6472.03,610.184 6464.58,610.184C6457.13,610.184 6450.74,604.627 6450.74,595.522Z" style="fill:white;"/>
            </g>
            <g transform="matrix(20.4396,0,0,20.4396,-38108.8,-12779.7)">
                <path d="M2134.62,659.562C2134.62,660.476 2135.1,660.958 2136.01,660.958L2137.61,660.958C2138.53,660.958 2139.01,660.476 2139.01,659.562L2139.01,655.88C2139.01,653.747 2140.02,651.97 2142.11,651.97C2143.02,651.97 2143.5,651.488 2143.5,650.575L2143.5,649.154C2143.5,648.24 2143.2,647.758 2142.31,647.758C2140.66,647.758 2139.26,649.56 2138.83,650.904L2138.78,650.904C2138.78,650.904 2138.83,650.524 2138.83,650.093L2138.83,649.281C2138.83,648.368 2138.35,647.885 2137.43,647.885L2136.01,647.885C2135.1,647.885 2134.62,648.368 2134.62,649.282L2134.62,659.562Z" style="fill:white;fill-rule:nonzero;"/>
            </g>
        </g>
    </g>
    <defs>
        <radialGradient id="_Radial2" cx="0" cy="0" r="1" gradientUnits="userSpaceOnUse" gradientTransform="matrix(1.04457e-13,-2.97222,2.97222,1.04457e-13,2150.92,654.422)"><stop offset="0" style="stop-color:rgb(255,213,0);stop-opacity:1"/><stop offset="1" style="stop-color:rgb(255,213,0);stop-opacity:0"/></radialGradient>
    </defs>
</svg>
