<?xml version="1.0" encoding="UTF-8" standalone="no"?>
<!DOCTYPE svg PUBLIC "-//W3C//DTD SVG 1.1//EN" "http://www.w3.org/Graphics/SVG/1.1/DTD/svg11.dtd">
<svg width="100%" height="100%" viewBox="0 0 392 392" version="1.1" xmlns="http://www.w3.org/2000/svg" xmlns:xlink="http://www.w3.org/1999/xlink" xml:space="preserve" xmlns:serif="http://www.serif.com/" style="fill-rule:evenodd;clip-rule:evenodd;stroke-linejoin:round;stroke-miterlimit:2;">
    <g transform="matrix(1,0,0,1,-9743,-404)">
        <g transform="matrix(1,0,0,1,-143.252,0)">
            <g transform="matrix(1,0,0,1,-44.0392,0)">
                <circle cx="10126.3" cy="600" r="195.452" style="fill:white;"/>
            </g>
            <g transform="matrix(1.39781,0,0,1.39781,4055.75,-166.869)">
                <path d="M4250.65,530.348C4250.66,531.759 4250.72,533.17 4250.83,534.577C4251.8,546.79 4256.33,558.465 4263.69,569.216C4267.9,575.346 4272.36,581.395 4275.88,587.789C4277.62,590.959 4279.13,594.217 4280.2,597.566C4281.32,601.053 4282.01,604.628 4283.27,608.087C4285.19,613.367 4289.09,618.425 4295.94,619.793C4303.59,621.317 4311.44,618.761 4317.76,615.496C4324.98,611.767 4331.33,606.935 4337.2,601.976C4343.52,596.639 4349.32,590.86 4354.25,584.675L4354.48,584.38C4356.97,581.201 4359.26,577.939 4361.31,574.569C4368.53,562.735 4372.97,549.425 4372.02,536.478C4371.22,525.741 4367.48,515.059 4361.15,505.568C4357.87,500.658 4353.82,495.974 4349.07,491.87C4345.16,488.486 4339.65,484.847 4334.8,482.632C4322.98,477.23 4309.16,475.557 4295.63,478.3C4280.64,481.343 4267.68,489.118 4260.1,499.729C4253.5,508.973 4250.63,519.528 4250.65,530.066L4250.65,530.348Z" style="fill:rgb(255,171,1);"/>
                <clipPath id="_clip1">
                    <path d="M4250.65,530.348C4250.66,531.759 4250.72,533.17 4250.83,534.577C4251.8,546.79 4256.33,558.465 4263.69,569.216C4267.9,575.346 4272.36,581.395 4275.88,587.789C4277.62,590.959 4279.13,594.217 4280.2,597.566C4281.32,601.053 4282.01,604.628 4283.27,608.087C4285.19,613.367 4289.09,618.425 4295.94,619.793C4303.59,621.317 4311.44,618.761 4317.76,615.496C4324.98,611.767 4331.33,606.935 4337.2,601.976C4343.52,596.639 4349.32,590.86 4354.25,584.675L4354.48,584.38C4356.97,581.201 4359.26,577.939 4361.31,574.569C4368.53,562.735 4372.97,549.425 4372.02,536.478C4371.22,525.741 4367.48,515.059 4361.15,505.568C4357.87,500.658 4353.82,495.974 4349.07,491.87C4345.16,488.486 4339.65,484.847 4334.8,482.632C4322.98,477.23 4309.16,475.557 4295.63,478.3C4280.64,481.343 4267.68,489.118 4260.1,499.729C4253.5,508.973 4250.63,519.528 4250.65,530.066L4250.65,530.348Z"/>
                </clipPath>
                <g clip-path="url(#_clip1)">
                    <g transform="matrix(19.8219,0,0,19.0243,-38323.8,-11936.5)">
                        <path d="M2147.95,654.46C2147.95,652.478 2149.32,651.234 2150.92,651.234C2152.52,651.234 2153.89,652.478 2153.89,654.46C2153.89,656.416 2152.52,657.61 2150.92,657.61C2149.32,657.61 2147.95,656.416 2147.95,654.46Z" style="fill:url(#_Radial2);"/>
                    </g>
                </g>
            </g>
        </g>
    </g>
    <defs>
        <radialGradient id="_Radial2" cx="0" cy="0" r="1" gradientUnits="userSpaceOnUse" gradientTransform="matrix(1.04457e-13,-2.97222,2.97222,1.04457e-13,2150.92,654.422)"><stop offset="0" style="stop-color:rgb(255,213,0);stop-opacity:1"/><stop offset="1" style="stop-color:rgb(255,213,0);stop-opacity:0"/></radialGradient>
    </defs>
</svg>
